<svg width="512" height="512" viewBox="0 0 135.467 135.467" xmlns="http://www.w3.org/2000/svg">
  <g fill="gray">
    <path d="M1.767 44.669c0-3.685 3.014-6.7 6.699-6.7h1.83c3.684 0 6.698 3.015 6.698 6.7v46.129c0 3.684-3.014 6.7-6.699 6.7h-1.83c-3.684 0-6.698-3.016-6.698-6.7zM29.942 35.226c-3.327 1.583-6.05 5.894-6.05 9.578v45.858c0 3.685 2.723 7.994 6.05 9.577l41.77 19.874c3.328 1.583 6.05-.136 6.05-3.821V19.175c0-3.685-2.722-5.404-6.049-3.821z"/>
    <g style="line-height:1.25">
      <path d="M113.71 85.199c-.103-10.098 1.03-12.88 7.625-18.548 10.098-8.861 12.365-12.468 12.365-19.68 0-10.717-7.934-17.93-19.681-17.93s-20.093 6.389-20.093 15.25c0 4.534 2.885 7.935 6.8 7.935 3.195 0 5.771-2.474 5.771-5.668 0-2.06-1.03-3.812-2.988-5.461-1.546-1.237-1.649-1.443-1.649-2.267 0-2.679 4.43-5.152 9.48-5.152 7.316 0 11.54 4.637 11.54 12.674 0 4.225-1.133 8.14-3.297 11.026-7.625 10.51-7.625 10.51-8.964 14.116-1.03 2.886-1.443 5.462-1.443 10.408v3.297zm-2.473 8.346c-3.607 0-6.492 2.886-6.492 6.389 0 3.606 2.885 6.492 6.389 6.492a6.465 6.465 0 006.492-6.492c0-3.503-2.886-6.389-6.39-6.389z" style="-inkscape-font-specification:'C059, Normal'" font-family="C059" aria-label="?" font-size="103.042" letter-spacing="0" word-spacing="0" fill-opacity=".9" stroke-width="7.728"/>
    </g>
  </g>
</svg>
