<svg width="512" height="512" xmlns="http://www.w3.org/2000/svg">
  <path d="M170.907 136.328c-12.249 5.827-22.271 21.695-22.271 35.259l-.001 168.823c0 13.565 10.022 29.431 22.271 35.259l153.775 73.163c12.249 5.827 22.271-.502 22.271-14.067l.002-357.53c0-13.565-10.022-19.895-22.271-14.067l-153.776 73.16zM67.18 171.09c0-13.565 11.098-24.663 24.663-24.663h6.734c13.565 0 24.663 11.098 24.663 24.663v169.82c0 13.565-11.098 24.663-24.663 24.663h-6.734c-13.565 0-24.663-11.098-24.663-24.663V171.09z" opacity=".9" fill="#44a3f2" fill-opacity=".9"/>
  <path opacity=".9" fill="#44a4f4" d="M424.835 406.492L403.143 384.8c71.02-71.02 71.019-186.579.001-257.599l21.693-21.693c82.981 82.982 82.981 218.003-.002 300.984z" fill-opacity=".9"/>
  <path opacity=".9" fill="#44a4f4" d="M382.838 362.074l-21.693-21.693c46.527-46.527 46.527-122.233.001-168.764l21.693-21.693c58.488 58.491 58.488 153.662-.001 212.15z" fill-opacity=".9"/>
</svg>
